<svg xmlns="http://www.w3.org/2000/svg" height="162.816" width="500" xmlns:v="https://vecta.io/nano"><defs><clipPath id="A"><path d="M413.742 90.435c-.057-4.494 4.005-7.002 7.065-8.493 3.144-1.53 4.2-2.51 4.188-3.88-.024-2.094-2.508-3.018-4.833-3.054-4.056-.063-6.414 1.095-8.29 1.97l-1.46-6.837c1.88-.867 5.364-1.623 8.976-1.656 8.478 0 14.025 4.185 14.055 10.674.033 8.235-11.39 8.69-11.313 12.372.027 1.116 1.092 2.307 3.426 2.6 1.155.153 4.344.27 7.96-1.395l1.42 6.615c-1.944.708-4.443 1.386-7.554 1.386-7.98 0-13.593-4.242-13.638-10.314m34.827 9.744c-1.548 0-2.853-.903-3.435-2.29l-12.11-28.917h8.472l1.686 4.66h10.353l.978-4.66h7.467l-6.516 31.206h-6.894m1.185-8.43L452.2 80.03h-6.696l4.25 11.718m-46.284 8.43l-6.678-31.206h8.073l6.675 31.206h-8.07m-11.943 0l-8.403-21.24-3.4 18.06c-.4 2.016-1.974 3.18-3.723 3.18h-13.737l-.192-.906c2.82-.612 6.024-1.6 7.965-2.655 1.188-.645 1.527-1.21 1.917-2.742l6.438-24.903h8.532l13.08 31.206h-8.478"/></clipPath><linearGradient id="B" spreadMethod="pad" gradientTransform="matrix(84.1995,31.0088,31.0088,-84.1995,19.512,-27.4192)" gradientUnits="userSpaceOnUse" y2="0" x2="1" y1="0" x1="0"><stop offset="0" stop-color="#222357"/><stop offset="1" stop-color="#254aa5"/></linearGradient></defs><g clip-path="url(#A)" transform="matrix(4.984686 0 0 -4.984686 -1803.82007 503.20209)"><g transform="translate(351.611 96.896)"><path d="M0 0l98.437 36.252 22.394-60.81L22.395-60.81" fill="url(#B)"/></g></g></svg>